<?xml version="1.0" standalone="no"?>
<!DOCTYPE svg PUBLIC "-//W3C//DTD SVG 20010904//EN"
 "http://www.w3.org/TR/2001/REC-SVG-20010904/DTD/svg10.dtd">
<svg version="1.0" xmlns="http://www.w3.org/2000/svg"
 width="400.000000pt" height="400.000000pt" viewBox="0 0 400.000000 400.000000"
 preserveAspectRatio="xMidYMid meet">

<g transform="translate(0.000000,400.000000) scale(0.100000,-0.100000)"
fill="#000000" stroke="none">
<path d="M328 3964 c39 -18 72 -38 72 -43 0 -5 16 -12 35 -15 19 -4 64 -21
100 -38 l66 -30 -7 -47 c-15 -105 -19 -116 -44 -113 -22 2 -22 1 -7 -16 15
-16 15 -24 -5 -97 -12 -44 -22 -81 -24 -83 -1 -2 -104 4 -230 13 -125 8 -241
15 -256 15 l-28 0 0 -103 c0 -101 1 -104 25 -115 l25 -11 -7 45 -6 46 164 -6
c90 -4 193 -9 227 -12 l64 -6 -7 -59 -7 -59 31 0 c21 0 29 4 25 13 -3 8 6 44
21 82 14 37 25 77 25 89 1 47 20 56 112 49 l85 -6 12 -101 c7 -55 17 -126 22
-156 5 -30 11 -104 13 -165 2 -60 7 -157 12 -215 l9 -105 5 80 c3 44 2 82 -1
85 -4 3 -9 59 -12 125 -3 75 -2 111 4 97 8 -20 11 -22 23 -9 15 15 20 87 6 87
-5 0 -11 -17 -13 -37 -4 -33 -4 -32 -3 7 1 32 5 45 16 46 8 1 22 2 30 3 10 1
11 4 3 12 -6 6 -8 23 -3 44 4 19 6 36 3 39 -12 11 11 46 38 60 28 14 30 14 24
-3 -3 -9 2 -32 11 -50 10 -20 15 -50 13 -84 -2 -29 0 -58 4 -64 5 -7 4 -13 -1
-13 -8 0 -8 -21 -3 -89 1 -7 7 -11 15 -8 10 4 19 -14 32 -66 17 -63 22 -72 44
-75 24 -4 49 -28 50 -47 0 -5 -4 -5 -8 2 -11 17 -27 3 -40 -32 l-10 -30 -1 35
c-1 20 4 41 11 48 7 7 9 12 5 12 -3 0 -15 -10 -27 -22 -14 -16 -20 -35 -20
-70 0 -41 5 -53 36 -85 20 -21 43 -55 51 -76 17 -40 59 -81 75 -71 6 4 -8 23
-31 43 -37 32 -42 41 -44 85 -2 39 2 50 18 60 11 6 24 16 28 21 5 6 6 1 3 -10
-22 -91 -13 -135 28 -135 75 -2 126 -110 76 -160 -25 -25 -25 -26 2 -76 l22
-41 -37 -32 c-46 -41 -54 -66 -30 -94 10 -12 25 -33 31 -47 7 -14 31 -45 53
-69 36 -39 82 -109 148 -224 13 -23 27 -44 31 -47 3 -3 12 -21 20 -40 31 -82
42 -98 68 -105 41 -10 72 -33 72 -54 0 -19 30 -51 48 -51 7 0 9 7 5 18 -6 16
-5 16 14 0 23 -21 37 -23 31 -5 -3 6 2 25 12 42 15 27 15 31 0 45 -9 8 -10 11
-4 7 23 -16 58 -3 65 23 l7 25 2 -25 c1 -23 3 -22 18 12 14 31 22 38 52 40 21
2 34 8 32 16 -1 7 10 12 30 12 23 0 29 3 19 9 -11 7 -9 10 7 15 16 6 20 15 20
52 -1 25 -5 47 -10 50 -4 3 -8 -9 -8 -25 0 -17 -5 -31 -11 -31 -6 0 -8 9 -4
21 5 16 2 22 -15 26 -18 5 -14 9 27 27 48 20 75 44 67 58 -3 5 0 8 6 8 6 0 9
4 6 9 -3 5 1 11 8 14 8 3 17 1 20 -6 5 -9 7 -9 12 1 3 6 19 12 35 12 16 0 29
5 29 10 0 18 25 10 40 -12 35 -56 118 -227 112 -233 -4 -3 0 -10 8 -15 15 -9
16 -13 19 -52 1 -18 8 -11 33 32 17 30 42 66 56 79 l26 24 -40 36 c-22 20 -55
50 -74 67 -19 17 -48 47 -64 65 l-28 34 24 10 c71 30 120 97 132 180 5 28 4
34 -3 20 -12 -28 -48 -58 -59 -51 -12 7 -35 -18 -25 -27 3 -4 1 -7 -5 -7 -7 0
-12 6 -12 13 0 9 -3 8 -9 -2 -7 -11 -10 -9 -16 9 -6 20 -12 22 -52 17 -25 -3
-40 -1 -33 3 7 4 9 13 6 19 -11 17 -26 13 -26 -6 0 -10 -11 -26 -24 -35 -23
-16 -24 -16 -31 -1 -5 15 -7 15 -15 3 -7 -10 -10 -11 -10 -2 0 6 -5 12 -11 12
-5 0 -7 -5 -3 -12 5 -8 2 -9 -11 -5 -9 4 -24 2 -31 -4 -11 -9 -14 -8 -14 6 0
14 -3 15 -15 5 -12 -10 -15 -10 -15 4 0 8 -11 18 -25 22 -14 3 -23 10 -20 14
3 4 -2 13 -10 20 -9 8 -15 30 -15 55 0 38 5 47 37 74 22 18 49 31 65 31 16 0
47 9 71 20 29 14 67 21 123 22 75 3 83 1 123 -26 23 -16 48 -41 55 -55 12 -23
14 -23 19 -5 9 30 20 87 22 109 3 28 -44 113 -66 120 -11 4 -19 10 -19 15 0
25 -34 41 -71 35 -31 -5 -39 -4 -39 8 0 8 9 17 20 20 28 7 25 32 -5 45 -42 19
-96 15 -122 -10 -20 -19 -27 -20 -41 -10 -27 19 -42 25 -49 18 -8 -7 13 -48
39 -75 10 -11 18 -29 18 -40 0 -11 4 -23 10 -26 6 -3 10 0 10 7 0 9 3 9 10 -2
10 -16 26 -19 132 -25 90 -5 128 -25 128 -68 0 -26 -4 -33 -20 -34 -11 -1 -26
7 -33 18 -6 10 -21 19 -33 19 -12 0 -34 10 -49 22 -29 22 -105 29 -128 10 -7
-5 -34 -13 -62 -17 l-50 -7 20 24 c11 12 26 28 33 35 8 6 11 16 8 21 -7 11
-70 5 -74 -7 -2 -5 -12 -7 -22 -4 -14 4 -20 0 -20 -11 0 -9 -4 -16 -10 -16 -5
0 -10 5 -10 10 0 6 -4 10 -10 10 -5 0 -10 -6 -10 -14 0 -8 -5 -18 -12 -22 -7
-4 -8 -3 -4 4 12 20 -10 13 -29 -9 -19 -20 -20 -33 -15 -141 2 -60 -25 -118
-62 -132 -18 -7 -29 -20 -33 -38 -4 -16 -11 -26 -16 -22 -5 3 -7 10 -3 15 7
13 -99 9 -107 -3 -7 -11 -41 1 -34 12 3 4 -2 10 -9 13 -8 3 -17 1 -20 -6 -2
-7 -5 -4 -5 6 -1 9 -7 16 -13 15 -7 -2 -13 6 -14 17 -2 40 -4 45 -18 45 -8 0
-28 11 -44 25 -17 14 -35 25 -41 25 -7 0 -11 6 -9 14 2 8 -6 21 -16 29 -17 13
-18 18 -7 45 7 17 11 37 8 44 -3 7 -6 3 -6 -9 -1 -13 -5 -23 -10 -23 -6 0 -9
26 -9 59 1 60 -7 85 -23 76 -5 -4 -9 17 -9 49 0 34 5 56 12 58 10 4 10 15 0
54 -7 27 -15 66 -17 87 -3 21 -10 47 -15 57 -17 32 -12 53 10 47 11 -3 18 -1
14 4 -13 21 70 7 123 -21 55 -30 93 -38 93 -21 0 5 -20 31 -45 59 -25 27 -45
53 -45 56 0 10 66 36 90 36 11 0 20 -5 20 -11 0 -5 -4 -8 -9 -4 -5 3 -12 1
-16 -5 -3 -5 -1 -10 4 -10 6 0 11 -9 11 -20 0 -14 -5 -18 -16 -13 -12 4 -15 1
-12 -13 2 -10 8 -19 15 -19 6 0 14 -3 18 -7 4 -3 17 -4 30 -2 13 2 25 -2 28
-10 3 -7 34 -28 68 -45 l63 -31 125 36 c69 20 134 43 144 52 16 14 17 12 17
-27 0 -29 4 -40 12 -35 7 5 8 3 3 -5 -4 -7 -21 -19 -39 -27 -17 -7 -25 -13
-18 -14 6 0 12 -10 12 -22 0 -20 3 -19 30 12 40 46 70 107 70 141 0 32 26 63
47 55 8 -3 18 -6 22 -6 4 0 18 -20 31 -44 12 -25 32 -54 44 -65 25 -23 92 -52
100 -43 4 3 -7 11 -23 18 -32 13 -68 63 -37 51 9 -4 16 -2 16 3 0 6 -8 10 -19
10 -23 0 -42 22 -33 36 4 6 17 14 30 18 18 6 22 4 22 -13 0 -16 6 -21 25 -21
14 0 25 -4 25 -10 0 -5 -9 -10 -20 -10 -28 0 -25 -17 5 -24 26 -7 60 6 60 21
-1 8 127 63 147 63 6 0 8 -13 4 -32 -16 -84 -17 -98 -9 -98 5 0 14 30 20 66 6
36 18 73 27 83 12 14 13 21 3 41 -7 14 -22 25 -32 25 -11 0 -34 8 -52 18 -18
9 -41 17 -52 17 -11 0 -27 7 -35 16 -17 17 -22 69 -7 78 5 4 17 31 27 61 13
43 14 61 6 78 -6 12 -14 40 -17 62 -7 42 -40 92 -90 138 -25 23 -28 29 -15 37
8 5 21 10 29 10 11 0 12 21 6 115 -5 81 -4 115 4 115 6 0 11 -4 11 -10 0 -5 8
-10 18 -10 13 0 14 2 4 9 -30 19 -56 101 -32 101 7 0 7 6 0 20 -10 18 -21 20
-133 20 l-122 -1 -63 -59 c-34 -33 -66 -60 -72 -60 -5 0 -16 10 -25 22 -14 22
-23 23 -163 26 -196 5 -285 -7 -326 -46 -29 -27 -93 -62 -113 -62 -4 0 -24
-11 -43 -23 -44 -30 -88 -41 -104 -28 -9 8 -11 33 -8 83 2 43 -1 87 -9 110
l-12 38 -486 -1 -486 -1 73 -34z m842 11 c0 -9 7 -18 15 -21 10 -4 15 -20 15
-48 0 -22 5 -72 11 -111 9 -67 9 -71 -12 -85 -20 -14 -102 -93 -135 -131 -8
-9 -14 -22 -13 -30 0 -8 4 -6 9 6 6 14 9 16 9 4 1 -8 -6 -24 -14 -35 -8 -10
-15 -27 -15 -36 0 -10 -4 -18 -10 -18 -5 0 -10 -10 -10 -22 0 -13 -4 -29 -9
-37 -6 -9 -8 -4 -7 17 1 17 5 34 9 38 11 11 9 44 -3 44 -5 0 -10 14 -10 30 0
17 5 30 11 30 5 0 9 10 7 23 -2 18 2 23 25 25 15 2 27 9 27 18 0 10 -8 13 -25
10 -17 -3 -25 0 -25 9 0 7 -6 16 -12 18 -8 3 -5 6 5 6 15 1 18 8 17 39 -3 62
-2 65 16 48 19 -20 30 -20 38 -1 3 10 -3 17 -19 21 -32 8 -32 24 0 24 14 0 25
5 25 10 0 6 -11 10 -25 10 -14 0 -25 5 -25 11 0 7 11 8 30 4 24 -5 29 -4 24 8
-3 8 6 26 21 41 14 14 21 26 15 26 -16 0 -12 27 5 34 8 3 15 12 15 21 0 8 5
15 10 15 6 0 10 -7 10 -15z m-438 -204 c21 -11 28 -23 33 -60 3 -26 5 -51 4
-57 -2 -5 1 -40 5 -79 8 -67 9 -68 20 -40 18 45 29 6 11 -42 -7 -21 -14 -33
-14 -27 -1 8 -31 13 -85 15 -46 2 -87 7 -91 11 -4 3 3 39 15 80 11 40 30 106
42 146 11 40 23 71 27 70 3 -2 18 -10 33 -17z m1568 -18 c11 -17 11 -17 6 0
-4 13 0 17 17 17 18 0 19 -2 7 -10 -12 -8 -9 -10 12 -10 14 0 28 5 30 12 5 14
38 4 38 -12 0 -5 -21 -10 -47 -11 -36 0 -43 -3 -28 -9 11 -5 32 -9 48 -9 21
-1 27 -6 27 -24 0 -22 -6 -27 -62 -55 -4 -2 -16 14 -25 35 -10 21 -26 47 -35
57 -10 11 -18 23 -18 28 0 14 19 9 30 -9z m-395 -287 c20 5 31 1 47 -16 11
-12 37 -29 57 -37 20 -8 46 -24 58 -35 13 -12 29 -18 38 -14 9 3 18 0 21 -8 9
-24 90 -40 149 -29 43 7 55 7 59 -4 3 -7 11 -11 18 -8 19 7 53 -25 77 -73 l21
-42 -22 0 c-24 -1 -106 -21 -123 -31 -35 -20 -97 -31 -132 -24 -21 5 -42 7
-46 6 -5 -1 -6 3 -2 8 3 6 -34 29 -82 52 -81 39 -96 43 -193 48 -100 6 -107 5
-142 -19 -37 -25 -48 -40 -28 -40 6 0 10 -5 10 -11 0 -6 -8 -8 -19 -4 -11 3
-36 -3 -57 -14 -20 -11 -41 -18 -46 -15 -17 11 -7 70 17 99 24 28 24 29 19 5
l-6 -25 18 25 c10 14 19 28 19 32 0 3 11 16 24 27 28 24 61 28 61 6 0 -8 8
-15 18 -15 12 0 22 14 31 47 8 25 22 54 33 65 10 10 18 24 18 32 0 19 21 26
42 14 10 -4 29 -6 43 -2z m-915 -116 c0 -11 -4 -20 -9 -20 -5 0 -7 9 -4 20 3
11 7 20 9 20 2 0 4 -9 4 -20z m933 -147 c-7 -2 -21 -2 -30 0 -10 3 -4 5 12 5
17 0 24 -2 18 -5z m-1083 -13 c0 -5 -2 -10 -4 -10 -3 0 -8 5 -11 10 -3 6 -1
10 4 10 6 0 11 -4 11 -10z m1220 0 c0 -13 -11 -13 -30 0 -12 8 -11 10 8 10 12
0 22 -4 22 -10z m-310 -20 c-20 -13 -33 -13 -25 0 3 6 14 10 23 10 15 0 15 -2
2 -10z m130 6 c0 -2 3 -11 6 -20 5 -13 -1 -16 -30 -16 -20 0 -36 2 -36 4 0 2
-3 11 -6 20 -5 13 1 16 30 16 20 0 36 -2 36 -4z m210 -25 c0 -3 -9 -12 -21
-19 -16 -10 -24 -11 -35 -1 -13 11 -12 14 7 25 22 11 49 9 49 -5z m333 12 c-7
-2 -19 -2 -25 0 -7 3 -2 5 12 5 14 0 19 -2 13 -5z m20 -19 c3 -4 2 -15 -4 -25
-7 -14 -20 -19 -47 -18 -20 1 -28 4 -16 6 11 2 27 13 34 23 15 21 23 24 33 14z
m129 -24 c12 -11 20 -21 17 -23 -38 -25 -90 -46 -103 -41 -10 4 -16 17 -15 38
0 24 2 27 8 12 7 -18 8 -18 14 -2 4 10 5 22 1 27 -11 18 57 9 78 -11z m-242
-30 c0 -4 -9 -10 -20 -13 -14 -4 -20 0 -20 12 0 10 3 21 7 24 7 7 33 -11 33
-23z m-501 -55 c12 -42 16 -45 47 -45 33 0 53 -14 35 -25 -6 -3 -31 -8 -56
-10 -26 -3 -51 -8 -56 -11 -6 -3 -16 0 -24 6 -17 14 -21 35 -5 25 15 -9 12 13
-5 39 -23 35 -8 59 40 65 6 0 17 -19 24 -44z m48 -11 c-3 -3 -12 -4 -19 -1 -8
3 -5 6 6 6 11 1 17 -2 13 -5z m-702 -183 c3 -5 1 -13 -5 -16 -15 -9 -43 3 -35
15 8 13 32 13 40 1z m111 -157 l1 -46 -18 23 c-27 35 -24 69 5 69 6 0 11 -20
12 -46z m391 -486 c-3 -8 -6 -5 -6 6 -1 11 2 17 5 13 3 -3 4 -12 1 -19z"/>
<path d="M1046 3681 c-3 -5 1 -11 9 -15 9 -3 15 0 15 9 0 16 -16 20 -24 6z"/>
<path d="M1025 3530 c-3 -5 1 -10 10 -10 9 0 13 5 10 10 -3 6 -8 10 -10 10 -2
0 -7 -4 -10 -10z"/>
<path d="M1829 2976 c6 -7 22 -11 36 -8 31 6 30 7 -14 16 -27 5 -31 4 -22 -8z"/>
<path d="M2927 3957 c-23 -35 -21 -42 4 -18 12 11 19 25 17 32 -2 7 -11 1 -21
-14z"/>
<path d="M0 3950 c0 -12 -11 -11 95 -15 65 -3 79 -2 50 4 -81 17 -145 22 -145
11z"/>
<path d="M3931 3936 c-7 -8 -25 -18 -41 -21 -16 -3 -38 -14 -49 -24 l-21 -18
26 0 c14 0 36 9 48 21 12 11 31 26 42 32 10 7 16 15 13 18 -3 4 -12 0 -18 -8z"/>
<path d="M3777 3873 c-12 -11 -8 -31 8 -37 11 -4 15 1 15 19 0 24 -10 32 -23
18z"/>
<path d="M3711 3843 c-7 -3 -22 -14 -32 -24 -40 -40 26 -23 69 18 11 11 10 13
-5 12 -10 0 -24 -3 -32 -6z"/>
<path d="M3760 3819 c0 -5 5 -7 10 -4 6 3 10 8 10 11 0 2 -4 4 -10 4 -5 0 -10
-5 -10 -11z"/>
<path d="M3508 3742 c-44 -20 -47 -28 -13 -34 17 -4 25 -1 25 9 0 11 7 14 28
9 15 -3 21 -3 15 0 -18 8 -16 22 5 27 14 4 14 5 -3 5 -11 1 -37 -7 -57 -16z"/>
<path d="M3425 3703 c-11 -3 -26 -10 -33 -16 -8 -6 -16 -7 -20 -1 -9 12 -39
15 -89 9 -33 -5 -41 -9 -36 -22 5 -13 0 -15 -25 -11 -21 3 -33 0 -37 -10 -4
-11 -16 -13 -47 -9 -26 3 -37 2 -28 -3 23 -14 4 -23 -20 -10 -44 24 -29 2 22
-31 34 -22 54 -42 56 -56 2 -13 10 -23 18 -23 8 0 12 5 9 10 -3 6 5 14 18 19
14 6 26 14 28 20 4 10 182 101 199 101 6 0 8 5 5 10 -3 6 -1 10 4 10 6 0 11 5
11 10 0 10 -3 11 -35 3z m-210 -72 c3 -5 1 -12 -5 -16 -5 -3 -10 1 -10 9 0 18
6 21 15 7z"/>
<path d="M273 3683 c15 -2 39 -2 55 0 15 2 2 4 -28 4 -30 0 -43 -2 -27 -4z"/>
<path d="M3705 3680 l-30 -8 27 -1 c15 0 30 4 33 9 3 6 5 9 3 9 -2 -1 -16 -5
-33 -9z"/>
<path d="M458 3673 c12 -2 32 -2 45 0 12 2 2 4 -23 4 -25 0 -35 -2 -22 -4z"/>
<path d="M3620 3630 c0 -5 25 -9 56 -9 30 1 53 4 50 7 -11 10 -106 12 -106 2z"/>
<path d="M3570 3620 c-8 -5 -10 -10 -5 -10 6 0 17 5 25 10 8 5 11 10 5 10 -5
0 -17 -5 -25 -10z"/>
<path d="M3662 3594 c-13 -6 -19 -14 -14 -18 5 -3 15 0 21 8 6 7 22 11 36 8
14 -2 25 -2 25 1 0 11 -47 12 -68 1z"/>
<path d="M3608 3593 c7 -3 16 -2 19 1 4 3 -2 6 -13 5 -11 0 -14 -3 -6 -6z"/>
<path d="M3418 3553 c7 -3 16 -2 19 1 4 3 -2 6 -13 5 -11 0 -14 -3 -6 -6z"/>
<path d="M3467 3548 c-7 -4 12 -8 41 -8 28 0 55 0 59 -1 4 0 9 3 10 8 4 10
-94 11 -110 1z"/>
<path d="M3495 3475 c-16 -8 -23 -14 -15 -14 8 0 26 6 40 14 32 18 15 18 -25
0z"/>
<path d="M3755 3453 c-104 -33 -114 -43 -39 -42 57 0 166 15 132 18 -11 1 -15
7 -12 15 4 11 -1 13 -18 10 -21 -4 -21 -3 -3 4 24 11 48 4 38 -11 -4 -6 2 -8
18 -4 13 4 31 7 39 7 10 1 8 4 -5 9 -49 19 -74 18 -150 -6z"/>
<path d="M3537 3378 c-15 -5 -25 -14 -21 -19 3 -5 -3 -8 -13 -7 -10 0 -29 0
-43 -1 l-25 -3 25 -8 c39 -13 148 -12 130 1 -12 8 -10 9 8 4 13 -4 29 -2 35 4
7 5 25 12 39 15 15 2 35 9 45 14 24 14 -143 14 -180 0z"/>
<path d="M3748 3353 c7 -3 16 -2 19 1 4 3 -2 6 -13 5 -11 0 -14 -3 -6 -6z"/>
<path d="M3710 3340 c-9 -6 -10 -10 -3 -10 6 0 15 5 18 10 8 12 4 12 -15 0z"/>
<path d="M3192 3225 c1 -67 3 -85 5 -45 4 89 10 108 33 115 27 8 26 25 -1 18
-12 -4 -25 0 -30 8 -5 9 -8 -29 -7 -96z"/>
<path d="M3322 3302 c-23 -9 -41 -21 -39 -27 6 -17 86 -17 140 1 59 19 81 34
50 34 -11 0 -40 2 -64 4 -27 3 -61 -2 -87 -12z"/>
<path d="M3577 3304 c-3 -3 -36 -14 -74 -24 l-68 -19 73 0 c66 -1 72 1 72 19
0 17 5 19 28 15 22 -4 24 -4 7 4 -25 12 -30 13 -38 5z"/>
<path d="M30 3260 c-12 -8 -12 -10 2 -15 26 -10 43 -2 26 12 -8 7 -19 8 -28 3z"/>
<path d="M3280 3234 c0 -12 4 -14 13 -7 6 6 19 13 27 16 9 3 3 6 -12 6 -20 1
-28 -4 -28 -15z"/>
<path d="M3320 3222 l-45 -17 63 -3 c43 -2 71 2 86 11 12 8 31 17 41 19 11 3
-7 5 -40 5 -33 1 -80 -6 -105 -15z"/>
<path d="M728 3223 c12 -2 30 -2 40 0 9 3 -1 5 -23 4 -22 0 -30 -2 -17 -4z"/>
<path d="M3458 3193 c7 -3 16 -2 19 1 4 3 -2 6 -13 5 -11 0 -14 -3 -6 -6z"/>
<path d="M851 3054 c0 -11 3 -14 6 -6 3 7 2 16 -1 19 -3 4 -6 -2 -5 -13z"/>
<path d="M854 2957 c-3 -16 -4 -31 0 -34 3 -4 6 1 6 10 0 8 4 17 10 19 6 2 6
9 0 17 -7 12 -10 9 -16 -12z"/>
<path d="M3201 2820 c0 -91 4 -181 9 -200 6 -19 13 -87 17 -150 l8 -115 6 70
c8 102 -1 409 -13 416 -5 3 -13 37 -17 75 -7 58 -9 42 -10 -96z m36 -202 c-3
-8 -6 -5 -6 6 -1 11 2 17 5 13 3 -3 4 -12 1 -19z"/>
<path d="M2570 2885 c-7 -8 -23 -15 -36 -15 -13 0 -24 -4 -24 -9 0 -10 35 -2
65 16 11 6 17 14 14 17 -3 4 -12 0 -19 -9z"/>
<path d="M1895 2870 c31 -8 112 -13 104 -6 -2 2 -33 6 -69 9 -41 3 -54 2 -35
-3z"/>
<path d="M2405 2860 c11 -5 36 -8 55 -8 32 0 33 1 10 8 -14 4 -38 8 -55 8 -25
1 -27 -1 -10 -8z"/>
<path d="M3623 2643 c-21 -4 -23 -10 -23 -62 0 -40 5 -63 15 -71 9 -8 15 -8
15 -2 0 6 15 12 33 14 l32 3 0 62 c0 68 -2 70 -72 56z"/>
<path d="M851 2624 c0 -11 3 -14 6 -6 3 7 2 16 -1 19 -3 4 -6 -2 -5 -13z"/>
<path d="M863 2445 c-1 -161 -1 -164 -12 -147 -6 10 -28 11 -107 4 -54 -5 -82
-10 -61 -11 26 -1 37 -6 37 -16 0 -8 -5 -15 -11 -15 -5 0 -7 5 -4 10 3 6 -3
10 -15 10 -17 0 -19 -3 -10 -20 6 -11 16 -17 25 -14 10 4 15 0 15 -12 0 -16
-2 -17 -11 -4 -8 11 -9 6 -5 -20 6 -33 5 -33 -6 -10 -6 14 -10 29 -9 33 1 5
-7 8 -16 7 -10 -1 -54 -1 -98 0 -63 2 -73 4 -45 10 l35 7 -45 3 c-42 2 -43 3
-15 10 l30 8 -35 -1 c-34 -2 -49 -23 -27 -38 5 -4 -26 -10 -69 -13 -44 -4
-103 -14 -133 -22 -29 -8 -59 -13 -67 -10 -10 4 -12 -7 -9 -44 2 -33 -2 -53
-11 -61 -8 -6 -14 -7 -14 -2 0 13 -151 5 -165 -8 -5 -6 -3 -9 7 -9 9 0 20 -5
24 -12 5 -8 0 -9 -15 -5 -19 5 -22 2 -19 -21 3 -26 5 -27 58 -25 37 2 49 0 35
-6 l-20 -8 20 -5 c11 -3 -6 -6 -37 -7 -52 -1 -58 -3 -58 -22 0 -24 -31 -25
345 9 127 11 272 23 322 25 l93 4 -23 -40 c-12 -22 -28 -42 -34 -44 -7 -3 -11
-9 -8 -13 3 -5 -8 -14 -25 -22 -16 -7 -32 -19 -35 -27 -4 -11 -1 -11 17 1 13
8 46 22 74 32 71 23 96 49 92 95 -3 36 -3 36 42 41 25 3 55 1 67 -4 17 -7 35
-4 65 9 61 27 76 41 70 70 -2 15 0 25 7 25 6 0 11 -5 11 -11 0 -24 30 22 31
48 0 23 2 25 8 9 7 -17 11 -14 34 25 l27 44 -39 3 c-40 3 -51 17 -51 69 0 12
-3 24 -7 26 -5 3 -7 -41 -6 -96 2 -74 -1 -97 -8 -84 -7 12 -18 16 -32 12 -22
-6 -22 -6 1 11 12 9 22 26 21 38 0 20 -1 21 -9 1 -5 -11 -9 -15 -9 -9 -1 6 -7
11 -15 11 -8 0 -12 -6 -9 -13 6 -17 -17 -29 -30 -14 -9 9 -5 17 16 36 18 16
27 30 23 40 -5 13 -9 14 -20 5 -11 -9 -15 -8 -21 6 -5 15 -9 12 -21 -16 -8
-18 -15 -50 -15 -70 -2 -45 -4 -32 -20 99 -14 121 -23 150 -43 150 -12 0 -16
16 -19 68 -2 37 -4 9 -4 -63z m117 -209 c0 -3 -4 -8 -10 -11 -5 -3 -10 -1 -10
4 0 6 5 11 10 11 6 0 10 -2 10 -4z m-5 -66 c3 -5 1 -10 -4 -10 -6 0 -11 5 -11
10 0 6 2 10 4 10 3 0 8 -4 11 -10z m-103 -70 c5 -35 2 -40 -28 -40 -17 0 -21
4 -17 20 3 11 0 20 -6 20 -6 0 -11 9 -11 21 0 11 5 17 10 14 6 -3 10 -1 10 5
0 25 38 -11 42 -40z m-185 -42 c-3 -8 -6 -5 -6 6 -1 11 2 17 5 13 3 -3 4 -12
1 -19z"/>
<path d="M3615 2421 c-15 -15 -1 -30 33 -34 20 -2 3 -4 -39 -5 -42 -1 -123 -5
-182 -8 -121 -8 -121 -8 -110 -101 l6 -53 178 2 178 1 9 26 c9 26 9 26 16 4 4
-13 14 -23 22 -23 8 0 12 5 9 10 -11 18 3 40 20 34 11 -5 13 -10 5 -19 -8 -9
-7 -14 4 -18 9 -4 16 4 20 24 7 37 37 36 47 -1 6 -21 7 -20 8 13 1 30 5 37 21
37 11 0 20 -7 20 -15 0 -23 17 -18 23 7 6 21 7 21 25 5 23 -21 32 -21 32 -1 0
11 6 14 20 9 18 -6 20 -2 20 37 l0 43 -154 -4 c-154 -3 -155 -3 -149 18 5 20
2 22 -36 20 -23 -2 -44 -5 -46 -8z"/>
<path d="M2183 2383 c-18 -7 -16 -38 3 -54 23 -19 87 -17 107 3 10 9 17 26 17
37 0 19 -6 21 -57 20 -32 0 -64 -3 -70 -6z"/>
<path d="M3240 2283 c0 -23 5 -45 10 -48 13 -8 13 55 0 75 -7 11 -10 4 -10
-27z"/>
<path d="M143 2273 c-18 -2 -33 -8 -33 -13 0 -5 7 -7 16 -3 9 3 20 0 25 -8 6
-10 9 -10 9 -2 0 7 6 10 14 7 7 -3 16 2 19 10 4 10 1 15 -6 14 -7 0 -27 -3
-44 -5z"/>
<path d="M237 2267 c19 -6 42 -6 60 0 24 9 19 10 -32 9 -52 0 -56 -2 -28 -9z"/>
<path d="M0 2245 c0 -19 5 -25 21 -25 12 0 23 8 26 19 3 11 12 22 22 24 9 3
-3 5 -26 6 -39 1 -43 -1 -43 -24z"/>
<path d="M2492 2240 c0 -19 2 -27 5 -17 2 9 2 25 0 35 -3 9 -5 1 -5 -18z"/>
<path d="M3886 2261 c-4 -7 -5 -15 -2 -18 9 -9 19 4 14 18 -4 11 -6 11 -12 0z"/>
<path d="M2460 2180 c-26 -6 -14 -8 47 -8 46 0 80 4 77 9 -6 10 -73 10 -124
-1z"/>
<path d="M2661 2179 c-24 -5 -47 -11 -50 -15 -3 -4 5 -4 19 -1 14 4 51 7 83 7
31 0 57 5 57 10 0 12 -47 11 -109 -1z"/>
<path d="M3196 2085 c3 -55 7 -101 9 -103 5 -5 179 -22 230 -22 45 1 48 2 32
15 -18 13 -17 14 5 17 21 3 20 4 -12 20 -19 9 -48 21 -63 27 -24 9 -26 14 -17
31 8 15 8 20 -1 20 -7 0 -10 3 -6 6 10 10 -37 43 -48 35 -16 -12 -55 -20 -71
-14 -8 3 -14 13 -14 23 0 26 -19 35 -27 13 -6 -16 -8 -15 -15 7 -4 14 -5 -20
-2 -75z"/>
<path d="M3330 2170 c0 -5 7 -7 15 -4 8 4 15 8 15 10 0 2 -7 4 -15 4 -8 0 -15
-4 -15 -10z"/>
<path d="M172 2135 c0 -16 2 -22 5 -12 2 9 2 23 0 30 -3 6 -5 -1 -5 -18z"/>
<path d="M1131 2061 c-9 -6 -10 -11 -2 -15 6 -4 11 -16 11 -27 0 -11 4 -17 10
-14 5 3 12 -7 15 -22 25 -124 84 -265 165 -399 22 -36 40 -69 40 -72 0 -5 70
-112 80 -122 5 -5 27 -45 67 -120 35 -67 75 -134 83 -140 13 -9 39 -67 33 -73
-3 -4 2 -9 11 -13 9 -3 16 -14 17 -23 0 -9 9 -29 20 -46 10 -16 21 -37 25 -45
9 -23 37 -74 43 -80 9 -8 27 -39 57 -98 15 -30 32 -59 38 -65 6 -7 20 -31 30
-54 11 -24 22 -43 26 -43 3 0 12 -16 19 -35 7 -19 18 -41 24 -48 12 -13 35
-52 65 -112 19 -36 83 -138 91 -145 12 -10 34 -65 32 -79 -1 -7 2 -10 8 -7 8
5 71 -75 71 -91 0 -3 11 -21 26 -40 16 -22 33 -33 50 -33 l24 0 -25 40 c-14
22 -25 44 -25 49 0 5 -4 11 -8 13 -12 4 -92 132 -92 147 0 6 -4 11 -8 11 -5 0
-18 19 -31 43 -12 23 -42 74 -66 112 -24 39 -44 74 -45 79 0 5 -6 17 -14 25
-8 9 -26 39 -42 66 -15 28 -36 66 -47 85 -11 19 -31 55 -45 80 -13 25 -30 52
-38 61 -8 8 -14 19 -14 24 0 5 -6 16 -14 24 -12 15 -38 61 -155 286 -23 44
-62 112 -86 150 -24 39 -44 76 -45 83 0 6 -3 12 -8 12 -4 0 -16 17 -27 38 -10
20 -25 45 -33 54 -8 10 -12 24 -9 32 4 9 -1 16 -9 18 -41 8 -224 400 -224 479
0 48 -34 72 -69 50z"/>
<path d="M2214 2007 c3 -10 6 -32 6 -48 0 -16 5 -29 11 -29 14 0 3 70 -13 85
-8 7 -9 4 -4 -8z"/>
<path d="M2230 1873 c0 -22 -2 -56 -5 -74 -5 -28 -4 -30 4 -12 12 27 17 110 8
119 -4 4 -7 -11 -7 -33z"/>
<path d="M540 1815 c-14 -8 -35 -14 -46 -15 -23 0 -48 -23 -37 -33 7 -8 -5 -9
-54 -9 -18 0 -34 -6 -37 -14 -3 -8 -16 -14 -29 -14 -27 0 -52 -24 -42 -40 3
-5 -1 -10 -10 -10 -9 0 -14 4 -10 9 3 5 1 12 -5 16 -5 3 -10 -1 -10 -9 0 -9
-5 -16 -11 -16 -5 0 -7 -6 -3 -12 4 -7 -2 -5 -12 5 -17 15 -17 19 -4 28 13 10
13 10 0 6 -37 -13 -70 -33 -70 -43 0 -6 -36 -18 -80 -28 l-80 -17 1 -422 c1
-293 4 -394 10 -332 20 225 59 361 163 578 58 120 71 140 131 195 38 34 74 62
82 62 8 0 13 6 12 13 -3 24 1 37 12 37 8 0 8 -5 -1 -15 -21 -25 0 -17 51 20
27 19 51 35 54 35 2 0 19 9 37 20 37 23 26 27 -12 5z m-191 -114 c-13 -11 -26
-17 -28 -15 -5 5 30 33 43 34 4 0 -2 -9 -15 -19z m-54 -41 c3 -5 2 -10 -4 -10
-5 0 -13 5 -16 10 -3 6 -2 10 4 10 5 0 13 -4 16 -10z"/>
<path d="M3640 1764 c-8 -1 -37 -6 -65 -10 l-50 -7 45 -7 c25 -4 72 -10 105
-14 l60 -7 -29 25 c-28 25 -35 27 -66 20z"/>
<path d="M2211 1734 c0 -11 3 -14 6 -6 3 7 2 16 -1 19 -3 4 -6 -2 -5 -13z"/>
<path d="M1930 1699 c0 -5 5 -7 10 -4 6 3 10 8 10 11 0 2 -4 4 -10 4 -5 0 -10
-5 -10 -11z"/>
<path d="M2196 1700 c-18 -48 -37 -113 -33 -116 7 -8 49 104 44 118 -4 10 -6
9 -11 -2z"/>
<path d="M2348 1694 c-5 -4 -8 -27 -8 -50 0 -24 -7 -60 -16 -81 -50 -114 -64
-155 -64 -182 0 -15 -4 -31 -9 -36 -6 -6 -12 -28 -14 -50 -3 -22 -2 -32 0 -22
2 9 9 17 14 17 5 0 9 8 9 17 0 16 20 80 41 128 49 117 60 157 57 210 -2 31 -6
53 -10 49z"/>
<path d="M1720 1583 c0 -4 16 -19 36 -33 19 -14 46 -35 60 -47 14 -13 28 -23
32 -23 4 0 34 -24 67 -54 48 -44 62 -53 77 -45 24 13 23 24 -2 26 -11 1 -25 7
-32 13 -7 6 -47 35 -88 65 -41 30 -88 65 -104 77 -34 27 -46 33 -46 21z"/>
<path d="M3400 1576 c0 -8 6 -21 14 -29 19 -19 86 -158 86 -179 0 -9 4 -19 9
-22 5 -3 12 -18 16 -33 3 -16 20 -54 36 -86 16 -32 29 -62 29 -68 0 -6 12 -35
26 -66 33 -73 54 -133 54 -158 0 -11 7 -29 15 -39 8 -11 15 -38 15 -60 1 -67
18 -81 103 -80 40 1 100 5 135 9 l62 7 -2 352 -3 351 -110 22 c-60 12 -150 29
-200 37 -49 8 -130 24 -179 35 -107 25 -106 25 -106 7z"/>
<path d="M2133 1535 c-13 -20 -19 -37 -13 -40 6 -3 10 -1 10 6 0 7 7 20 16 30
9 10 14 22 13 28 -2 6 -14 -5 -26 -24z"/>
<path d="M2560 1428 c1 -57 10 -161 21 -233 11 -71 24 -200 30 -285 12 -184 3
-541 -15 -552 -8 -6 -8 -8 2 -8 14 0 16 -58 3 -110 -5 -19 -12 -81 -15 -138
-6 -96 -5 -102 13 -102 17 0 20 10 26 87 3 49 13 130 22 182 12 75 14 157 10
405 -2 171 -9 338 -15 371 -6 33 -16 101 -22 150 -11 91 -25 200 -36 288 -11
82 -24 51 -24 -55z"/>
<path d="M2032 1463 c-26 -32 -21 -43 20 -43 21 0 29 -4 25 -13 -3 -9 8 -17
34 -24 21 -6 39 -6 39 -2 0 5 -5 9 -10 9 -6 0 -15 11 -20 25 -5 14 -16 25 -25
25 -8 0 -15 4 -15 10 0 6 10 5 25 -2 20 -9 28 -9 38 2 9 10 9 11 0 6 -7 -4
-18 2 -25 14 -18 28 -46 25 -54 -5 -3 -14 -10 -25 -15 -25 -13 0 -11 14 3 28
6 6 9 14 7 17 -3 3 -15 -7 -27 -22z"/>
<path d="M2020 1324 c0 -13 35 -33 57 -34 12 0 27 9 33 20 10 19 8 20 -40 20
-27 0 -50 -3 -50 -6z"/>
<path d="M1700 1250 c0 -5 7 -10 15 -10 8 0 15 5 15 10 0 6 -7 10 -15 10 -8 0
-15 -4 -15 -10z"/>
<path d="M430 1160 c0 -5 5 -10 10 -10 6 0 10 5 10 10 0 6 -4 10 -10 10 -5 0
-10 -4 -10 -10z"/>
<path d="M2190 1154 c0 -8 5 -12 10 -9 6 4 8 11 5 16 -9 14 -15 11 -15 -7z"/>
<path d="M295 1090 c-4 -6 5 -10 19 -10 14 0 26 5 26 10 0 6 -9 10 -19 10 -11
0 -23 -4 -26 -10z"/>
<path d="M720 1036 c0 -14 48 -32 58 -21 3 3 -4 8 -16 12 -12 3 -22 9 -22 14
0 5 -4 9 -10 9 -5 0 -10 -6 -10 -14z"/>
<path d="M990 1010 c0 -5 5 -10 10 -10 6 0 10 5 10 10 0 6 -4 10 -10 10 -5 0
-10 -4 -10 -10z"/>
<path d="M888 943 c-10 -3 -18 -9 -18 -14 0 -10 7 -11 34 0 23 9 9 19 -16 14z"/>
<path d="M1238 942 c-10 -2 -18 -8 -18 -13 0 -11 11 -11 30 1 18 11 11 18 -12
12z"/>
<path d="M453 922 c-13 -2 -23 -7 -23 -12 0 -9 46 -7 56 2 9 9 -9 14 -33 10z"/>
<path d="M138 873 c7 -3 16 -2 19 1 4 3 -2 6 -13 5 -11 0 -14 -3 -6 -6z"/>
<path d="M3294 793 c10 -11 36 -12 36 -2 0 5 -10 9 -22 9 -12 0 -18 -3 -14 -7z"/>
<path d="M961 754 c0 -11 3 -14 6 -6 3 7 2 16 -1 19 -3 4 -6 -2 -5 -13z"/>
<path d="M1460 741 c0 -11 9 -36 21 -55 19 -32 19 -36 4 -36 -9 0 -26 -11 -37
-25 -22 -28 -39 -26 -31 4 5 21 -8 34 -29 26 -17 -7 -58 -112 -58 -151 0 -16
-6 -38 -14 -49 -7 -11 -17 -48 -21 -82 -6 -56 -5 -64 12 -70 23 -9 33 -23 33
-50 0 -26 18 -31 26 -8 10 25 24 17 24 -15 0 -16 5 -30 10 -30 6 0 10 -9 10
-20 0 -37 20 -20 21 18 1 24 3 29 6 14 9 -47 27 -16 24 41 -1 36 2 57 8 57 7
0 9 11 6 28 -6 26 -6 26 10 7 9 -11 20 -27 25 -35 8 -13 11 -13 27 3 14 14 14
17 3 18 -25 0 -63 57 -56 83 7 29 -10 82 -29 90 -11 4 -11 10 -2 30 9 19 15
22 30 14 12 -6 23 -6 31 1 15 13 3 99 -20 143 -8 14 -14 36 -14 47 0 12 -4 21
-10 21 -5 0 -10 -9 -10 -19z m50 -163 c0 -30 -1 -31 -16 -16 -9 9 -14 24 -11
32 11 27 27 17 27 -16z m-130 -289 c0 -6 -4 -7 -10 -4 -5 3 -10 11 -10 16 0 6
5 7 10 4 6 -3 10 -11 10 -16z"/>
<path d="M590 740 c0 -5 5 -10 10 -10 6 0 10 5 10 10 0 6 -4 10 -10 10 -5 0
-10 -4 -10 -10z"/>
<path d="M247 724 c-4 -4 -4 -10 -2 -14 6 -10 45 0 45 11 0 10 -33 12 -43 3z"/>
<path d="M1120 710 c0 -5 5 -10 10 -10 6 0 10 5 10 10 0 6 -4 10 -10 10 -5 0
-10 -4 -10 -10z"/>
<path d="M3185 710 c3 -5 14 -10 23 -10 15 0 15 2 2 10 -20 13 -33 13 -25 0z"/>
<path d="M910 670 c0 -5 5 -10 11 -10 5 0 7 5 4 10 -3 6 -8 10 -11 10 -2 0 -4
-4 -4 -10z"/>
<path d="M15 640 c-3 -5 3 -10 14 -10 11 0 23 5 26 10 3 6 -3 10 -14 10 -11 0
-23 -4 -26 -10z"/>
<path d="M3542 630 c-55 -45 -253 -52 -332 -11 -51 27 -51 13 0 -64 22 -33 40
-68 40 -77 0 -9 4 -20 10 -23 5 -3 17 -23 26 -43 9 -20 22 -50 31 -65 8 -15
20 -38 26 -50 7 -13 33 -53 60 -89 26 -37 47 -70 48 -75 0 -4 20 -35 43 -68
l43 -60 153 -3 152 -3 -25 23 c-13 13 -30 34 -36 46 -7 13 -15 21 -18 19 -6
-7 -70 55 -69 67 1 5 -9 12 -22 17 -12 5 -27 21 -33 36 -16 43 -30 57 -41 41
-6 -8 -8 1 -4 27 5 33 17 51 76 107 39 38 84 75 101 83 16 9 29 23 29 32 0 25
-54 9 -128 -38 -36 -22 -71 -38 -78 -35 -9 3 -12 20 -10 50 2 47 -5 56 -44 56
-13 0 -18 7 -17 20 1 11 6 20 11 20 5 0 6 3 2 7 -3 4 8 22 26 40 35 36 20 46
-20 13z"/>
<path d="M413 563 c-13 -2 -23 -9 -23 -15 0 -5 7 -7 16 -4 9 3 25 6 35 6 11 0
17 5 14 10 -3 6 -9 9 -13 9 -4 -1 -17 -4 -29 -6z"/>
<path d="M2 505 c0 -27 2 -44 5 -37 2 6 10 9 15 6 7 -5 8 -2 3 6 -5 7 -12 27
-16 44 -6 27 -7 24 -7 -19z"/>
<path d="M1010 510 c0 -5 4 -10 9 -10 6 0 13 5 16 10 3 6 -1 10 -9 10 -9 0
-16 -4 -16 -10z"/>
<path d="M2454 485 c-10 -8 -14 -14 -9 -15 15 0 40 18 34 24 -3 3 -14 -1 -25
-9z"/>
<path d="M115 480 c-3 -5 -2 -10 4 -10 5 0 13 5 16 10 3 6 2 10 -4 10 -5 0
-13 -4 -16 -10z"/>
<path d="M40 443 c0 -7 11 -29 25 -49 14 -20 25 -33 25 -28 -1 14 -50 90 -50
77z"/>
<path d="M580 390 c0 -5 4 -10 9 -10 6 0 13 5 16 10 3 6 -1 10 -9 10 -9 0 -16
-4 -16 -10z"/>
<path d="M910 351 c0 -5 7 -11 15 -15 8 -3 15 -1 15 3 0 5 -7 11 -15 15 -8 3
-15 1 -15 -3z"/>
<path d="M201 337 c-6 -8 -8 -16 -5 -19 6 -7 54 14 54 25 0 12 -37 8 -49 -6z"/>
<path d="M1011 322 c13 -35 11 -68 -6 -82 -23 -19 -18 -34 15 -53 l30 -18 0
65 c0 36 -5 68 -10 71 -6 4 -8 14 -5 24 3 12 -1 17 -14 17 -16 0 -17 -4 -10
-24z"/>
<path d="M2340 280 c0 -5 5 -10 11 -10 5 0 7 5 4 10 -3 6 -8 10 -11 10 -2 0
-4 -4 -4 -10z"/>
<path d="M56 234 c-4 -9 -4 -19 -2 -21 8 -8 26 8 26 23 0 19 -16 18 -24 -2z"/>
<path d="M740 185 c0 -8 9 -15 20 -15 11 0 20 2 20 5 0 2 -9 9 -20 15 -16 9
-20 8 -20 -5z"/>
<path d="M1567 173 c-4 -3 -7 -21 -7 -40 0 -18 -4 -33 -10 -33 -5 0 -10 14
-10 30 0 30 -1 31 -37 24 -46 -8 -50 -14 -45 -59 5 -39 9 -42 38 -20 16 13 17
16 4 26 -11 8 -12 12 -2 16 6 2 13 12 13 21 1 10 4 1 8 -18 4 -26 11 -35 26
-35 16 0 21 9 26 45 7 48 6 54 -4 43z"/>
<path d="M388 162 c-19 -4 -25 -32 -8 -32 6 0 10 6 10 13 0 9 2 9 9 -1 6 -10
10 -10 20 1 13 17 -2 26 -31 19z"/>
<path d="M1388 130 c-16 -10 -14 -50 3 -50 5 0 9 -7 9 -15 0 -9 9 -15 21 -15
16 0 19 4 14 18 -5 9 -9 28 -10 41 -2 28 -13 35 -37 21z"/>
<path d="M1319 118 c0 -2 -2 -12 -3 -23 -2 -11 -6 -30 -10 -42 -6 -17 -3 -23
8 -23 9 0 16 4 16 10 0 5 6 7 14 4 8 -3 17 -1 20 4 8 14 -17 72 -31 72 -7 0
-13 -1 -14 -2z"/>
<path d="M1036 65 c-21 -39 -16 -65 13 -65 19 0 20 5 14 48 -3 26 -7 48 -7 49
-1 1 -10 -13 -20 -32z"/>
<path d="M115 60 c-18 -8 -17 -9 8 -9 15 -1 27 4 27 9 0 12 -8 12 -35 0z"/>
<path d="M1160 40 c0 -5 5 -10 10 -10 6 0 10 5 10 10 0 6 -4 10 -10 10 -5 0
-10 -4 -10 -10z"/>
<path d="M1135 30 c-3 -5 -1 -10 4 -10 6 0 11 5 11 10 0 6 -2 10 -4 10 -3 0
-8 -4 -11 -10z"/>
<path d="M1890 30 c0 -5 5 -10 10 -10 6 0 10 5 10 10 0 6 -4 10 -10 10 -5 0
-10 -4 -10 -10z"/>
<path d="M10 10 c0 -5 7 -10 16 -10 8 0 12 5 9 10 -3 6 -10 10 -16 10 -5 0 -9
-4 -9 -10z"/>
</g>
</svg>
